<svg width="19" height="18" viewBox="0 0 19 18" fill="none" xmlns="http://www.w3.org/2000/svg">
<path fill-rule="evenodd" clip-rule="evenodd" d="M15.625 11.25C14.1125 11.25 12.85 12.325 12.5625 13.75H7.4375C7.15 12.325 5.8875 11.25 4.375 11.25C2.65 11.25 1.25 12.65 1.25 14.375C1.25 16.1 2.65 17.5 4.375 17.5C5.8875 17.5 7.15 16.425 7.4375 15H12.5625C12.85 16.425 14.1125 17.5 15.625 17.5C17.35 17.5 18.75 16.1 18.75 14.375C18.75 12.65 17.35 11.25 15.625 11.25Z" fill="current" stroke-width="0"/>
<path d="M3.75 1.25V8.125M3.75 8.125L1.25 5.625M3.75 8.125L6.25 5.625" stroke="current" stroke-width="1.5" stroke-linecap="round" stroke-linejoin="round"/>
</svg>
