<svg width="21" height="21" viewBox="0 0 21 21" fill="none"
  xmlns="http://www.w3.org/2000/svg">
  <path fill-rule="evenodd" clip-rule="evenodd" d="M3.09902 11.3715C3.09902 7.72646 6.05395 4.77154 9.69902 4.77154C9.88457 4.77154 10.0683 4.77919 10.25 4.79421L10.25 3.43483C10.25 3.1449 10.2874 2.86371 10.3576 2.59581C10.1402 2.57972 9.92056 2.57154 9.69902 2.57154C4.83892 2.57154 0.899024 6.51143 0.899026 11.3715C0.899025 16.2316 4.83892 20.1715 9.69903 20.1715C14.5591 20.1715 18.499 16.2316 18.499 11.3715C18.499 11.2603 18.497 11.1496 18.4929 11.0394C18.3026 11.0735 18.1066 11.0914 17.9065 11.0914L16.2932 11.0914C16.2971 11.1843 16.299 11.2777 16.299 11.3715C16.299 15.0166 13.3441 17.9715 9.69902 17.9715C6.05395 17.9715 3.09903 15.0166 3.09902 11.3715Z" fill="#6F7B8A"/>
  <path d="M19.3416 2L13.5498 7.79137M13.5498 7.79137L13.5498 2.33485M13.5498 7.79137L19.0063 7.79137" stroke="#6F7B8A" stroke-width="1.5" stroke-linecap="round" stroke-linejoin="round"/>
</svg>
