<svg width="19" height="20" viewBox="0 0 19 20" fill="none"
  xmlns="http://www.w3.org/2000/svg">
  <path fill-rule="evenodd" clip-rule="evenodd" d="M10.9482 4.17661C10.0946 3.85041 9.16818 3.67172 8.2 3.67172C3.94741 3.67172 0.5 7.11913 0.5 11.3717C0.5 15.6243 3.94741 19.0717 8.2 19.0717C12.4526 19.0717 15.9 15.6243 15.9 11.3717C15.9 10.5249 15.7633 9.70996 15.5107 8.94783L14.3336 10.1249C13.0448 11.4136 10.9553 11.4135 9.66666 10.1248C8.37798 8.83598 8.37805 6.74654 9.66682 5.45785L10.9482 4.17661Z" fill="#6F7B8A"/>
  <path d="M12 7.79137L17.7918 2M17.7918 2L17.7918 7.45653M17.7918 2L12.3353 2" stroke="#6F7B8A" stroke-width="1.5" stroke-linecap="round" stroke-linejoin="round"/>
</svg>
