<svg width="17" height="16" viewBox="0 0 17 16" fill="none"
  xmlns="http://www.w3.org/2000/svg">
  <path fill-rule="evenodd" clip-rule="evenodd" d="M14 10.0307V14.2696C14 14.8219 13.5523 15.2696 13 15.2696H1C0.447715 15.2696 0 14.8219 0 14.2696V2.03668C0 1.4844 0.447715 1.03668 1 1.03668H8.69877C7.93137 1.45838 7.34983 2.17642 7.10826 3.03668H2V13.2696H12V9.93971C12.3563 10.0713 12.7415 10.1431 13.1435 10.1431C13.4397 10.143 13.7269 10.104 14 10.0307Z" fill="#6F7B8A"/>
  <path d="M13.4997 1L13.5 3.5M13.5 3.5L13.5003 6M13.5 3.5L11 3.50025M13.5 3.5L16 3.49975" stroke="#6F7B8A" stroke-width="2" stroke-linecap="round" stroke-linejoin="round"/>
</svg>
