<svg width="18" height="18" viewBox="0 0 18 18" fill="none"
  xmlns="http://www.w3.org/2000/svg">
  <path fill-rule="evenodd" clip-rule="evenodd" d="M12.3994 2.0001C12.3993 1.39259 12.8917 0.900055 13.4992 0.899994C14.1068 0.899933 14.5993 1.39237 14.5994 1.99988L14.5995 3.39988L15.9995 3.39974C16.607 3.39968 17.0995 3.89212 17.0996 4.49963C17.0997 5.10714 16.6072 5.59968 15.9997 5.59974L14.5997 5.59988L14.5999 6.99988C14.5999 7.6074 14.1075 8.09993 13.5 8.09999C12.8925 8.10006 12.3999 7.60762 12.3999 7.0001L12.3997 5.6001L10.9997 5.60025C10.3922 5.60031 9.89967 5.10787 9.89961 4.50036C9.89955 3.89284 10.392 3.40031 10.9995 3.40025L12.3995 3.4001L12.3994 2.0001ZM15.1004 16V9.88669C14.6265 10.15 14.081 10.3 13.5004 10.3C13.2955 10.3 13.095 10.2814 12.9004 10.2457V14.9H3.10039V5.09999H7.75417C7.71848 4.90562 7.69982 4.70529 7.6998 4.5006C7.69975 3.91982 7.84972 3.37407 8.11309 2.89999H2.00039C1.39288 2.89999 0.900391 3.39248 0.900391 3.99999V16C0.900391 16.6075 1.39288 17.1 2.00039 17.1H14.0004C14.6079 17.1 15.1004 16.6075 15.1004 16Z" fill="#6F7B8A"/>
</svg>
