<svg width="16" height="16" viewBox="0 0 19 18" fill="none"
  xmlns="http://www.w3.org/2000/svg">
  <path stroke-width="0" stroke="none" fill-rule="evenodd" clip-rule="evenodd" d="M8.94917 1.50918C4.6559 1.50918 1.18969 4.99219 1.10124 9.29283C1.48222 9.10242 1.91098 8.99546 2.36435 8.99546L3.11711 8.99546C3.35099 5.91412 5.88526 3.50918 8.94917 3.50918C9.04383 3.50918 9.13799 3.51147 9.23159 3.51601L9.23159 2.26339C9.23159 2.00578 9.26462 1.75601 9.32661 1.51819C9.20155 1.5122 9.07572 1.50918 8.94917 1.50918ZM16.7765 8.85797C16.4928 8.95354 16.1894 9.00528 15.8741 9.00528L14.782 9.00528C14.7931 9.15577 14.7988 9.30786 14.7988 9.46136C14.7988 12.743 12.1973 15.3818 9.00682 15.4133L9.00682 15.7374C9.00682 16.3558 8.81645 16.9292 8.49195 17.4003C8.64322 17.4091 8.79566 17.4135 8.94917 17.4135C13.2984 17.4135 16.7988 13.8392 16.7988 9.46136C16.7988 9.25841 16.7913 9.05719 16.7765 8.85797Z" fill="current" />

  <path d="M17.1184 1L12.0938 6.09955M12.0938 6.09955L12.0938 1.29485M12.0938 6.09955L16.8276 6.09955" stroke="current" stroke-width="2" stroke-linecap="round" stroke-linejoin="round"/>

  <path d="M1.11983 17.0008L6.14453 11.9012M6.14453 11.9012L6.14453
  16.7059M6.14453 11.9012L1.41068 11.9012" stroke="current" stroke-width="2" stroke-linecap="round" stroke-linejoin="round" />
</svg>
