<svg width="20" height="20" viewBox="0 0 20 20" fill="none" xmlns="http://www.w3.org/2000/svg">
<path fill-rule="evenodd" clip-rule="evenodd" d="M1.99911 10.4613C1.99911 10.4929 1.9993 10.5245 1.99965 10.556C2.41481 10.3278 2.89027 10.1983 3.39555 10.1983L4.2048 10.1983C4.34015 7.07428 6.87447 4.60915 9.94878 4.60915C10.1132 4.60915 10.276 4.6162 10.437 4.63002L10.437 3.29542C10.437 2.99542 10.4807 2.70578 10.562 2.4327C10.3596 2.4171 10.1552 2.40915 9.94878 2.40915C5.54295 2.40915 1.99911 6.0297 1.99911 10.4613ZM17.8921 10.1364C17.8963 10.2442 17.8984 10.3525 17.8984 10.4613C17.8984 14.893 14.3546 18.5135 9.94878 18.5135C9.9198 18.5135 9.89087 18.5134 9.86198 18.513C10.0819 18.0952 10.2065 17.618 10.2065 17.1112L10.2065 16.3077C13.2485 16.1707 15.6984 13.6201 15.6984 10.4613C15.6984 10.3766 15.6967 10.2922 15.6932 10.2083L17.248 10.2083C17.4693 10.2083 17.6848 10.1835 17.8921 10.1364Z" fill="#6F7B8A"/>
<path d="M18.5252 2L13.373 7.22892M13.373 7.22892L13.373 2.30233M13.373 7.22892L18.227 7.22892" stroke="#6F7B8A" stroke-width="2.2" stroke-linecap="round" stroke-linejoin="round"/>
<path d="M18.5252 2L13.373 7.22892M13.373 7.22892L13.373 2.30233M13.373 7.22892L18.227 7.22892" stroke="#6F7B8A" stroke-width="2.2" stroke-linecap="round" stroke-linejoin="round"/>
<path d="M2.11931 18.4067L7.27148 13.1778M7.27148 13.1778L7.27148 18.1044M7.27148 13.1778L2.41754 13.1778" stroke="#6F7B8A" stroke-width="2.2" stroke-linecap="round" stroke-linejoin="round"/>
</svg>
